<svg xmlns="http://www.w3.org/2000/svg" xmlns:xlink="http://www.w3.org/1999/xlink" width="2000" zoomAndPan="magnify" viewBox="0 0 1500 1499.999933" height="2000" preserveAspectRatio="xMidYMid meet" version="1.0"><defs><g/><clipPath id="1432ebf139"><path d="M 312.054688 441.578125 L 709 441.578125 L 709 576 L 312.054688 576 Z M 312.054688 441.578125 " clip-rule="nonzero"/></clipPath><clipPath id="963f0d6b36"><path d="M 618 556 L 662 556 L 662 640.328125 L 618 640.328125 Z M 618 556 " clip-rule="nonzero"/></clipPath><clipPath id="2d436e1d82"><path d="M 625 557 L 665 557 L 665 640.328125 L 625 640.328125 Z M 625 557 " clip-rule="nonzero"/></clipPath><clipPath id="105b9e02f1"><path d="M 633 559 L 669 559 L 669 640.328125 L 633 640.328125 Z M 633 559 " clip-rule="nonzero"/></clipPath><clipPath id="6c9f949a87"><path d="M 641 559 L 677 559 L 677 640.328125 L 641 640.328125 Z M 641 559 " clip-rule="nonzero"/></clipPath><clipPath id="8bb56066ca"><path d="M 649 564 L 685 564 L 685 640.328125 L 649 640.328125 Z M 649 564 " clip-rule="nonzero"/></clipPath><clipPath id="20345daeb3"><path d="M 657 563 L 693 563 L 693 640.328125 L 657 640.328125 Z M 657 563 " clip-rule="nonzero"/></clipPath><clipPath id="faf45ac37d"><path d="M 665 564 L 700 564 L 700 640.328125 L 665 640.328125 Z M 665 564 " clip-rule="nonzero"/></clipPath><clipPath id="9a0406dc0b"><path d="M 673 562 L 708 562 L 708 640.328125 L 673 640.328125 Z M 673 562 " clip-rule="nonzero"/></clipPath><clipPath id="90266264d9"><path d="M 679 564 L 715 564 L 715 640.328125 L 679 640.328125 Z M 679 564 " clip-rule="nonzero"/></clipPath><clipPath id="9697901a29"><path d="M 682 562 L 721.554688 562 L 721.554688 640.328125 L 682 640.328125 Z M 682 562 " clip-rule="nonzero"/></clipPath><clipPath id="068a311bcc"><path d="M 683 550 L 721.554688 550 L 721.554688 636 L 683 636 Z M 683 550 " clip-rule="nonzero"/></clipPath><clipPath id="991174b105"><path d="M 735 545 L 808 545 L 808 640.234375 L 735 640.234375 Z M 735 545 " clip-rule="nonzero"/></clipPath><clipPath id="7244a1953a"><path d="M 793 586 L 813.132812 586 L 813.132812 607 L 793 607 Z M 793 586 " clip-rule="nonzero"/></clipPath><clipPath id="3a7c14e42f"><path d="M 729.132812 586 L 748 586 L 748 607 L 729.132812 607 Z M 729.132812 586 " clip-rule="nonzero"/></clipPath><clipPath id="1a41209e1f"><path d="M 735.351562 488.238281 L 799.34375 488.238281 L 799.34375 903.738281 L 735.351562 903.738281 Z M 735.351562 488.238281 " clip-rule="nonzero"/></clipPath><clipPath id="0e1730008e"><path d="M 729.132812 370 L 799.632812 370 L 799.632812 483.25 L 729.132812 483.25 Z M 729.132812 370 " clip-rule="nonzero"/></clipPath><clipPath id="28604c9928"><path d="M 692.546875 983 L 838 983 L 838 1025 L 692.546875 1025 Z M 692.546875 983 " clip-rule="nonzero"/></clipPath><clipPath id="6ba306d8c8"><path d="M 748 903.367188 L 784 903.367188 L 784 976 L 748 976 Z M 748 903.367188 " clip-rule="nonzero"/></clipPath><clipPath id="041a115945"><path d="M 780 994 L 851.546875 994 L 851.546875 1027.867188 L 780 1027.867188 Z M 780 994 " clip-rule="nonzero"/></clipPath><clipPath id="f81a509193"><path d="M 831.101562 453.105469 L 1216.601562 453.105469 L 1216.601562 639.855469 L 831.101562 639.855469 Z M 831.101562 453.105469 " clip-rule="nonzero"/></clipPath><clipPath id="03867915f9"><path d="M 12 0.105469 L 385.601562 0.105469 L 385.601562 127 L 12 127 Z M 12 0.105469 " clip-rule="nonzero"/></clipPath><clipPath id="c1cfc2d551"><path d="M 65 0.105469 L 217 0.105469 L 217 89 L 65 89 Z M 65 0.105469 " clip-rule="nonzero"/></clipPath><clipPath id="30a0cfc8b3"><path d="M 57 108 L 98 108 L 98 186.855469 L 57 186.855469 Z M 57 108 " clip-rule="nonzero"/></clipPath><clipPath id="c964ff14e9"><path d="M 54 109 L 91 109 L 91 186.855469 L 54 186.855469 Z M 54 109 " clip-rule="nonzero"/></clipPath><clipPath id="2afc26ec61"><path d="M 49 110 L 84 110 L 84 186.855469 L 49 186.855469 Z M 49 110 " clip-rule="nonzero"/></clipPath><clipPath id="370b890cde"><path d="M 42 111 L 76 111 L 76 186.855469 L 42 186.855469 Z M 42 111 " clip-rule="nonzero"/></clipPath><clipPath id="3d4c0336d8"><path d="M 35 115 L 69 115 L 69 186.855469 L 35 186.855469 Z M 35 115 " clip-rule="nonzero"/></clipPath><clipPath id="55239798ad"><path d="M 28 114 L 61 114 L 61 186.855469 L 28 186.855469 Z M 28 114 " clip-rule="nonzero"/></clipPath><clipPath id="ff42ad6b6b"><path d="M 20 115 L 54 115 L 54 186.855469 L 20 186.855469 Z M 20 115 " clip-rule="nonzero"/></clipPath><clipPath id="5170aaaebf"><path d="M 13 114 L 46 114 L 46 186.855469 L 13 186.855469 Z M 13 114 " clip-rule="nonzero"/></clipPath><clipPath id="866a1277b4"><path d="M 6 115 L 40 115 L 40 186.855469 L 6 186.855469 Z M 6 115 " clip-rule="nonzero"/></clipPath><clipPath id="53101ce3ee"><path d="M 0.40625 114 L 38 114 L 38 186.855469 L 0.40625 186.855469 Z M 0.40625 114 " clip-rule="nonzero"/></clipPath><clipPath id="5277f027e9"><path d="M 0.40625 102 L 37 102 L 37 182 L 0.40625 182 Z M 0.40625 102 " clip-rule="nonzero"/></clipPath><clipPath id="a19eeb6c6e"><rect x="0" width="386" y="0" height="187"/></clipPath><clipPath id="125e363026"><path d="M 68.269531 216.027344 L 1466 216.027344 L 1466 1306.527344 L 68.269531 1306.527344 Z M 68.269531 216.027344 " clip-rule="nonzero"/></clipPath><clipPath id="9386e2d76d"><rect x="0" width="409" y="0" height="213"/></clipPath></defs><rect x="-150" width="1800" fill="#ffffff" y="-149.999993" height="1799.99992" fill-opacity="1"/><rect x="-150" width="1800" fill="#ffffff" y="-149.999993" height="1799.99992" fill-opacity="1"/><g clip-path="url(#1432ebf139)"><path stroke-linecap="butt" transform="matrix(0.549711, 0.000000000000000068, -0.000000000000000068, 0.550097, 376.875939, 403.565537)" fill="none" stroke-linejoin="miter" d="M 580.971661 290.461797 C 459.771512 296.192322 455.102862 218.833785 487.733671 175.851296 C 520.36448 132.875909 526.71015 118.048975 516.619612 95.623946 C 505.655035 71.246137 236.195041 84.098987 232.514126 92.066334 C 201.503488 92.286466 179.858574 95.368309 126.471102 95.368309 C 23.910023 95.368309 -17.546454 92.165748 -76.327389 88.316994 C -137.204598 84.333321 -117.229597 99.756741 -70.024356 106.190268 C -25.80364 112.226136 104.051632 114.157615 129.270871 114.157615 " stroke="#000000" stroke-width="4" stroke-opacity="1" stroke-miterlimit="4"/></g><path stroke-linecap="butt" transform="matrix(0.549711, 0.000000000000000068, -0.000000000000000068, 0.550097, 376.875939, 403.565537)" fill="none" stroke-linejoin="miter" d="M 234.212463 92.499496 C 227.902324 100.253813 234.212463 113.170572 267.838114 110.5858 C 301.463765 108.001028 402.347825 108.001028 438.076856 110.5858 C 473.805887 113.170572 486.333787 123.445752 475.909266 146.751307 C 463.217928 175.119891 462.21598 175.411033 456.993061 188.093459 C 442.709976 222.753549 465.399474 224.258966 471.702507 208.757434 " stroke="#000000" stroke-width="4" stroke-opacity="1" stroke-miterlimit="4"/><path stroke-linecap="butt" transform="matrix(0.549711, 0.000000000000000068, -0.000000000000000068, 0.550097, 376.875939, 403.565537)" fill="none" stroke-linejoin="miter" d="M 236.827476 105.423357 C 207.408584 108.001028 181.670607 105.423357 148.044956 105.423357 C 99.702753 102.838585 137.535163 123.50256 162.761508 123.50256 C 198.490538 123.50256 437.039378 118.340117 470.665029 118.340117 " stroke="#000000" stroke-width="4" stroke-opacity="1" stroke-miterlimit="4"/><path stroke-linecap="butt" transform="matrix(0.549711, 0.000000000000000068, -0.000000000000000068, 0.550097, 376.875939, 403.565537)" fill="none" stroke-linejoin="miter" d="M -65.071465 105.92753 C -107.103529 105.92753 -92.394083 118.85139 -54.561673 121.429061 C -16.729262 124.013834 136.270293 129.183378 136.270293 129.183378 " stroke="#000000" stroke-width="4" stroke-opacity="1" stroke-miterlimit="4"/><path stroke-linecap="butt" transform="matrix(0.549711, 0.000000000000000068, -0.000000000000000068, 0.550097, 376.875939, 403.565537)" fill="none" stroke-linejoin="miter" d="M 164.061908 123.552267 C 105.586531 124.802047 148.329196 144.841132 173.534222 143.917999 C 209.249041 142.611411 444.834674 126.69802 478.446113 125.462442 " stroke="#000000" stroke-width="4" stroke-opacity="1" stroke-miterlimit="4"/><path stroke-linecap="butt" transform="matrix(0.549711, 0.000000000000000068, -0.000000000000000068, 0.550097, 376.875939, 403.565537)" fill="none" stroke-linejoin="miter" d="M 173.548435 144.031615 C 125.170701 144.961849 163.401049 163.495518 188.577651 161.663454 C 224.242728 159.071581 445.936106 136.674956 479.504909 134.239306 " stroke="#000000" stroke-width="4" stroke-opacity="1" stroke-miterlimit="4"/><path stroke-linecap="butt" transform="matrix(0.549711, 0.000000000000000068, -0.000000000000000068, 0.550097, 376.875939, 403.565537)" fill="none" stroke-linejoin="miter" d="M 189.842521 161.713161 C 141.528742 165.022237 180.839203 181.63863 205.937639 178.563887 C 241.48902 174.218061 443.768772 146.382054 477.223879 142.291865 " stroke="#000000" stroke-width="4" stroke-opacity="1" stroke-miterlimit="4"/><path stroke-linecap="butt" transform="matrix(0.549711, 0.000000000000000068, -0.000000000000000068, 0.550097, 376.875939, 403.565537)" fill="none" stroke-linejoin="miter" d="M 209.000331 178.059714 C 160.821566 183.527502 200.5726 199.029033 225.564446 194.83943 C 260.9666 188.902975 441.267455 154.668947 474.587548 149.080442 " stroke="#000000" stroke-width="4" stroke-opacity="1" stroke-miterlimit="4"/><path stroke-linecap="butt" transform="matrix(0.549711, 0.000000000000000068, -0.000000000000000068, 0.550097, 376.875939, 403.565537)" fill="none" stroke-linejoin="miter" d="M 242.640194 191.722081 C 174.50064 205.846015 218.593448 217.349671 243.421855 211.888985 C 278.596617 204.14887 438.695079 163.538124 471.794885 156.252475 " stroke="#000000" stroke-width="4" stroke-opacity="1" stroke-miterlimit="4"/><path stroke-linecap="butt" transform="matrix(0.549711, 0.000000000000000068, -0.000000000000000068, 0.550097, 376.875939, 403.565537)" fill="none" stroke-linejoin="miter" d="M -32.50461 122.60073 C -74.536674 122.60073 -58.768432 134.864196 -20.936022 137.448968 C 16.896389 140.03374 165.37652 143.78308 165.37652 143.78308 " stroke="#000000" stroke-width="4" stroke-opacity="1" stroke-miterlimit="4"/><path stroke-linecap="butt" transform="matrix(0.549711, 0.000000000000000068, -0.000000000000000068, 0.550097, 376.875939, 403.565537)" fill="none" stroke-linejoin="miter" d="M 9.328486 138.996991 C -32.703578 138.996991 -17.994132 151.920851 19.838278 154.498522 C 57.670689 157.083294 170.300987 160.186441 170.300987 160.186441 " stroke="#000000" stroke-width="4" stroke-opacity="1" stroke-miterlimit="4"/><path stroke-linecap="butt" transform="matrix(0.549711, 0.000000000000000068, -0.000000000000000068, 0.550097, 376.875939, 403.565537)" fill="none" stroke-linejoin="miter" d="M 58.843181 156.572021 C 16.804011 156.572021 29.928816 169.48878 67.761226 172.073553 C 105.586531 174.651224 176.170553 175.687973 176.170553 175.687973 " stroke="#000000" stroke-width="4" stroke-opacity="1" stroke-miterlimit="4"/><path stroke-linecap="butt" transform="matrix(0.549711, 0.000000000000000068, -0.000000000000000068, 0.550097, 376.875939, 403.565537)" fill="none" stroke-linejoin="miter" d="M 100.56258 173.323333 C 58.537622 174.438193 76.217381 186.311102 114.085322 187.887529 C 151.953263 189.456855 187.263039 187.844923 187.263039 187.844923 " stroke="#000000" stroke-width="4" stroke-opacity="1" stroke-miterlimit="4"/><path stroke-linecap="butt" transform="matrix(0.549711, 0.000000000000000068, -0.000000000000000068, 0.550097, 376.875939, 403.565537)" fill="none" stroke-linejoin="miter" d="M 147.533323 188.569227 C 105.607849 192.346971 121.575059 202.600848 159.464318 201.78423 C 197.34647 200.960511 225.713672 195.698654 225.713672 195.698654 " stroke="#000000" stroke-width="4" stroke-opacity="1" stroke-miterlimit="4"/><path stroke-linecap="butt" transform="matrix(0.549711, 0.000000000000000068, -0.000000000000000068, 0.550097, 376.875939, 403.565537)" fill="none" stroke-linejoin="miter" d="M 180.050436 200.8824 C 138.267082 206.513511 155.09412 218.031369 192.926531 215.531809 C 205.532597 215.098647 213.292362 213.117462 213.292362 213.117462 " stroke="#000000" stroke-width="4" stroke-opacity="1" stroke-miterlimit="4"/><path stroke-linecap="butt" transform="matrix(0.549711, 0.000000000000000068, -0.000000000000000068, 0.550097, 376.875939, 403.565537)" fill="none" stroke-linejoin="miter" d="M 250.47102 210.340962 C 202.846524 227.07097 241.233204 233.540002 265.841325 226.730121 C 300.696316 217.086933 433.834566 176.234752 466.628814 167.159645 " stroke="#000000" stroke-width="4" stroke-opacity="1" stroke-miterlimit="4"/><path stroke-linecap="butt" transform="matrix(0.549711, 0.000000000000000068, -0.000000000000000068, 0.550097, 376.875939, 403.565537)" fill="none" stroke-linejoin="miter" d="M 217.357002 212.34345 C 176.376627 223.818702 190.752091 233.156547 228.101292 225.352523 " stroke="#000000" stroke-width="4" stroke-opacity="1" stroke-miterlimit="4"/><path stroke-linecap="butt" transform="matrix(0.549711, 0.000000000000000068, -0.000000000000000068, 0.550097, 376.875939, 403.565537)" fill="none" stroke-linejoin="miter" d="M 452.793408 212.627491 C 440.180235 243.630555 465.399474 238.468111 471.702507 228.129023 " stroke="#000000" stroke-width="4" stroke-opacity="1" stroke-miterlimit="4"/><path stroke-linecap="butt" transform="matrix(0.549711, 0.000000000000000068, -0.000000000000000068, 0.550097, 376.875939, 403.565537)" fill="none" stroke-linejoin="miter" d="M 451.457477 234.171993 C 449.716504 271.438158 471.006118 253.735309 472.946059 241.038681 " stroke="#000000" stroke-width="4" stroke-opacity="1" stroke-miterlimit="4"/><path stroke-linecap="butt" transform="matrix(0.549711, 0.000000000000000068, -0.000000000000000068, 0.550097, 376.875939, 403.565537)" fill="none" stroke-linejoin="miter" d="M 454.697819 255.489262 C 462.024118 288.963481 478.083706 264.50756 477.216773 251.633407 " stroke="#000000" stroke-width="4" stroke-opacity="1" stroke-miterlimit="4"/><path stroke-linecap="butt" transform="matrix(0.549711, 0.000000000000000068, -0.000000000000000068, 0.550097, 376.875939, 403.565537)" fill="none" stroke-linejoin="miter" d="M 462.208874 271.651189 C 475.418951 302.277898 486.646451 274.037132 483.462958 261.723959 " stroke="#000000" stroke-width="4" stroke-opacity="1" stroke-miterlimit="4"/><path stroke-linecap="butt" transform="matrix(0.549711, 0.000000000000000068, -0.000000000000000068, 0.550097, 376.875939, 403.565537)" fill="none" stroke-linejoin="miter" d="M 472.683137 285.469778 C 491.79831 310.948246 496.800943 280.122708 491.172981 269.215538 " stroke="#000000" stroke-width="4" stroke-opacity="1" stroke-miterlimit="4"/><path stroke-linecap="butt" transform="matrix(0.549711, 0.000000000000000068, -0.000000000000000068, 0.550097, 376.875939, 403.565537)" fill="none" stroke-linejoin="miter" d="M 283.130253 221.667092 C 236.102663 239.788901 275.427336 244.695708 299.658838 236.103471 C 333.987985 223.932319 429.833881 187.688701 462.137814 176.234752 " stroke="#000000" stroke-width="4" stroke-opacity="1" stroke-miterlimit="4"/><path stroke-linecap="butt" transform="matrix(0.549711, 0.000000000000000068, -0.000000000000000068, 0.550097, 376.875939, 403.565537)" fill="none" stroke-linejoin="miter" d="M 319.328281 228.860428 C 273.039715 246.179822 314.311436 250.213202 338.09526 239.902518 C 371.791971 225.302816 425.563168 201.947553 457.277301 188.207075 " stroke="#000000" stroke-width="4" stroke-opacity="1" stroke-miterlimit="4"/><path stroke-linecap="butt" transform="matrix(0.549711, 0.000000000000000068, -0.000000000000000068, 0.550097, 376.875939, 403.565537)" fill="none" stroke-linejoin="miter" d="M 369.290655 226.346666 C 324.252748 248.082895 365.652376 248.771695 388.704281 236.195784 C 421.363514 218.38642 422.514688 216.611165 453.255298 199.845651 " stroke="#000000" stroke-width="4" stroke-opacity="1" stroke-miterlimit="4"/><path stroke-linecap="butt" transform="matrix(0.549711, 0.000000000000000068, -0.000000000000000068, 0.550097, 376.875939, 403.565537)" fill="none" stroke-linejoin="miter" d="M 408.366617 225.281513 C 366.597476 255.290433 408.032635 246.826015 429.236976 230.032097 C 437.401785 222.789054 447.449686 217.520095 452.168079 211.668853 " stroke="#000000" stroke-width="4" stroke-opacity="1" stroke-miterlimit="4"/><path stroke-linecap="butt" transform="matrix(0.549711, 0.000000000000000068, -0.000000000000000068, 0.550097, 376.875939, 403.565537)" fill="none" stroke-linejoin="miter" d="M 440.620808 221.042203 C 404.849141 261.091968 442.91605 235.47148 449.027221 228.086417 " stroke="#000000" stroke-width="4" stroke-opacity="1" stroke-miterlimit="4"/><path stroke-linecap="butt" transform="matrix(0.549711, 0.000000000000000068, -0.000000000000000068, 0.550097, 376.875939, 403.565537)" fill="none" stroke-linejoin="miter" d="M 231.881691 227.582244 C 224.534074 230.784805 224.391954 243.502736 261.748262 235.691612 " stroke="#000000" stroke-width="4" stroke-opacity="1" stroke-miterlimit="4"/><path stroke-linecap="butt" transform="matrix(0.549711, 0.000000000000000068, -0.000000000000000068, 0.550097, 376.875939, 403.565537)" fill="none" stroke-linejoin="miter" d="M 287.528875 239.412547 C 255.573137 245.61174 294.258269 253.231137 312.762325 251.164739 L 452.359941 242.892048 " stroke="#000000" stroke-width="4" stroke-opacity="1" stroke-miterlimit="4"/><path stroke-linecap="butt" transform="matrix(0.549711, 0.000000000000000068, -0.000000000000000068, 0.550097, 376.875939, 403.565537)" fill="none" stroke-linejoin="miter" d="M 338.137896 239.632679 L 350.282071 238.212474 " stroke="#000000" stroke-width="4" stroke-opacity="1" stroke-miterlimit="4"/><path stroke-linecap="butt" transform="matrix(0.549711, 0.000000000000000068, -0.000000000000000068, 0.550097, 376.875939, 403.565537)" fill="none" stroke-linejoin="miter" d="M 382.060159 239.519063 L 392.868404 238.105959 " stroke="#000000" stroke-width="4" stroke-opacity="1" stroke-miterlimit="4"/><path stroke-linecap="butt" transform="matrix(0.549711, 0.000000000000000068, -0.000000000000000068, 0.550097, 376.875939, 403.565537)" fill="none" stroke-linejoin="miter" d="M 419.061166 236.799371 L 428.277664 236.032461 " stroke="#000000" stroke-width="4" stroke-opacity="1" stroke-miterlimit="4"/><path stroke-linecap="butt" transform="matrix(0.549711, 0.000000000000000068, -0.000000000000000068, 0.550097, 376.875939, 403.565537)" fill="none" stroke-linejoin="miter" d="M 438.808775 236.153178 L 451.82699 236.799371 " stroke="#000000" stroke-width="4" stroke-opacity="1" stroke-miterlimit="4"/><path stroke-linecap="butt" transform="matrix(0.549711, 0.000000000000000068, -0.000000000000000068, 0.550097, 376.875939, 403.565537)" fill="none" stroke-linejoin="miter" d="M 310.90055 251.072426 C 279.293006 259.543946 318.297909 264.386843 336.674057 260.999655 L 452.104124 246.897025 " stroke="#000000" stroke-width="4" stroke-opacity="1" stroke-miterlimit="4"/><path stroke-linecap="butt" transform="matrix(0.549711, 0.000000000000000068, -0.000000000000000068, 0.550097, 376.875939, 403.565537)" fill="none" stroke-linejoin="miter" d="M 330.136526 262.000899 C 299.189841 273.575566 336.126894 277.374613 354.218802 272.176664 L 452.864468 250.603758 " stroke="#000000" stroke-width="4" stroke-opacity="1" stroke-miterlimit="4"/><path stroke-linecap="butt" transform="matrix(0.549711, 0.000000000000000068, -0.000000000000000068, 0.550097, 376.875939, 403.565537)" fill="none" stroke-linejoin="miter" d="M 347.07726 274.243062 C 317.047251 289.034491 354.581209 290.646423 372.23965 283.566704 L 455.323148 254.50222 " stroke="#000000" stroke-width="4" stroke-opacity="1" stroke-miterlimit="4"/><path stroke-linecap="butt" transform="matrix(0.549711, 0.000000000000000068, -0.000000000000000068, 0.550097, 376.875939, 403.565537)" fill="none" stroke-linejoin="miter" d="M 357.807339 286.847376 C 328.79349 304.429508 366.576158 303.002202 383.744284 294.275046 L 456.190082 260.254048 " stroke="#000000" stroke-width="4" stroke-opacity="1" stroke-miterlimit="4"/><path stroke-linecap="butt" transform="matrix(0.549711, 0.000000000000000068, -0.000000000000000068, 0.550097, 376.875939, 403.565537)" fill="none" stroke-linejoin="miter" d="M 363.122636 299.877752 C 335.146265 319.860029 373.64664 314.52006 390.288922 304.372699 L 458.094493 265.643724 " stroke="#000000" stroke-width="4" stroke-opacity="1" stroke-miterlimit="4"/><path stroke-linecap="butt" transform="matrix(0.549711, 0.000000000000000068, -0.000000000000000068, 0.550097, 376.875939, 403.565537)" fill="none" stroke-linejoin="miter" d="M 373.760337 311.381408 C 347.247804 334.17569 383.289499 326.968152 399.178543 315.137849 L 462.39363 271.651189 " stroke="#000000" stroke-width="4" stroke-opacity="1" stroke-miterlimit="4"/><path stroke-linecap="butt" transform="matrix(0.549711, 0.000000000000000068, -0.000000000000000068, 0.550097, 376.875939, 403.565537)" fill="none" stroke-linejoin="miter" d="M 379.95678 324.177451 C 355.163902 349.719828 391.78829 339.295527 406.781977 325.817787 L 464.752827 277.161582 " stroke="#000000" stroke-width="4" stroke-opacity="1" stroke-miterlimit="4"/><path stroke-linecap="butt" transform="matrix(0.549711, 0.000000000000000068, -0.000000000000000068, 0.550097, 376.875939, 403.565537)" fill="none" stroke-linejoin="miter" d="M 390.793449 335.439672 C 368.302919 364.035489 403.250288 352.361408 417.014635 337.0232 L 468.95248 282.970218 " stroke="#000000" stroke-width="4" stroke-opacity="1" stroke-miterlimit="4"/><path stroke-linecap="butt" transform="matrix(0.549711, 0.000000000000000068, -0.000000000000000068, 0.550097, 376.875939, 403.565537)" fill="none" stroke-linejoin="miter" d="M 400.081007 348.647574 C 379.857295 379.693243 414.662545 362.047203 427.204657 345.196477 L 475.397633 285.526586 " stroke="#000000" stroke-width="4" stroke-opacity="1" stroke-miterlimit="4"/><path stroke-linecap="butt" transform="matrix(0.549711, 0.000000000000000068, -0.000000000000000068, 0.550097, 376.875939, 403.565537)" fill="none" stroke-linejoin="miter" d="M 410.612117 360.15123 C 393.195281 393.660954 427.247293 371.82531 438.261612 353.433663 L 477.650239 290.461797 " stroke="#000000" stroke-width="4" stroke-opacity="1" stroke-miterlimit="4"/><path stroke-linecap="butt" transform="matrix(0.549711, 0.000000000000000068, -0.000000000000000068, 0.550097, 376.875939, 403.565537)" fill="none" stroke-linejoin="miter" d="M 424.099329 369.446468 C 410.001 405.242721 440.969003 381.255468 450.149971 361.40101 L 481.189034 293.572044 " stroke="#000000" stroke-width="4" stroke-opacity="1" stroke-miterlimit="4"/><path stroke-linecap="butt" transform="matrix(0.549711, 0.000000000000000068, -0.000000000000000068, 0.550097, 376.875939, 403.565537)" fill="none" stroke-linejoin="miter" d="M 437.657601 379.352394 C 426.813826 416.817388 454.584123 389.343533 461.953058 368.381315 L 485.779518 294.338955 " stroke="#000000" stroke-width="4" stroke-opacity="1" stroke-miterlimit="4"/><path stroke-linecap="butt" transform="matrix(0.549711, 0.000000000000000068, -0.000000000000000068, 0.550097, 376.875939, 403.565537)" fill="none" stroke-linejoin="miter" d="M 487.186508 294.388662 C 504.717041 317.914349 510.252625 288.388298 504.624663 277.481128 " stroke="#000000" stroke-width="4" stroke-opacity="1" stroke-miterlimit="4"/><path stroke-linecap="butt" transform="matrix(0.549711, 0.000000000000000068, -0.000000000000000068, 0.550097, 376.875939, 403.565537)" fill="none" stroke-linejoin="miter" d="M 502.947644 299.941661 C 522.069923 325.413029 527.072556 294.594592 521.444594 283.687421 " stroke="#000000" stroke-width="4" stroke-opacity="1" stroke-miterlimit="4"/><path stroke-linecap="butt" transform="matrix(0.549711, 0.000000000000000068, -0.000000000000000068, 0.550097, 376.875939, 403.565537)" fill="none" stroke-linejoin="miter" d="M 521.4517 306.140854 C 540.566874 331.619322 545.569507 300.793784 539.941545 289.886614 " stroke="#000000" stroke-width="4" stroke-opacity="1" stroke-miterlimit="4"/><path stroke-linecap="butt" transform="matrix(0.549711, 0.000000000000000068, -0.000000000000000068, 0.550097, 376.875939, 403.565537)" fill="none" stroke-linejoin="miter" d="M 541.007447 308.860546 C 560.129726 334.339014 564.073563 302.860182 558.438495 291.953011 " stroke="#000000" stroke-width="4" stroke-opacity="1" stroke-miterlimit="4"/><path stroke-linecap="butt" transform="matrix(0.549711, 0.000000000000000068, -0.000000000000000068, 0.550097, 376.875939, 403.565537)" fill="none" stroke-linejoin="miter" d="M 560.136832 306.140854 C 579.259112 331.619322 584.261745 300.793784 578.633783 289.886614 " stroke="#000000" stroke-width="4" stroke-opacity="1" stroke-miterlimit="4"/><path stroke-linecap="butt" transform="matrix(0.549711, 0.000000000000000068, -0.000000000000000068, 0.550097, 376.875939, 403.565537)" fill="none" stroke-linejoin="miter" d="M 450.789512 387.078306 C 443.328199 425.778878 467.438899 395.400705 472.903423 373.572162 L 490.028913 298.081194 " stroke="#000000" stroke-width="4" stroke-opacity="1" stroke-miterlimit="4"/><g clip-path="url(#963f0d6b36)"><path stroke-linecap="butt" transform="matrix(0.549711, 0.000000000000000068, -0.000000000000000068, 0.550097, 376.875939, 403.565537)" fill="none" stroke-linejoin="miter" d="M 462.066754 396.238625 C 458.833518 435.812623 480.975853 399.661318 484.045651 377.136875 L 494.256991 300.729875 " stroke="#000000" stroke-width="4" stroke-opacity="1" stroke-miterlimit="4"/></g><g clip-path="url(#2d436e1d82)"><path stroke-linecap="butt" transform="matrix(0.549711, 0.000000000000000068, -0.000000000000000068, 0.550097, 376.875939, 403.565537)" fill="none" stroke-linejoin="miter" d="M 474.871788 403.020101 C 473.940901 442.771624 494.001174 404.81666 495.756359 382.079187 L 499.87074 302.618747 " stroke="#000000" stroke-width="4" stroke-opacity="1" stroke-miterlimit="4"/></g><g clip-path="url(#105b9e02f1)"><path stroke-linecap="butt" transform="matrix(0.549711, 0.000000000000000068, -0.000000000000000068, 0.550097, 376.875939, 403.565537)" fill="none" stroke-linejoin="miter" d="M 489.318312 406.172955 C 490.249199 445.924478 508.035549 407.948211 508.724832 385.125525 L 508.589818 306.155056 " stroke="#000000" stroke-width="4" stroke-opacity="1" stroke-miterlimit="4"/></g><g clip-path="url(#6c9f949a87)"><path stroke-linecap="butt" transform="matrix(0.549711, 0.000000000000000068, -0.000000000000000068, 0.550097, 376.875939, 403.565537)" fill="none" stroke-linejoin="miter" d="M 503.999334 408.416878 C 506.052971 448.111593 522.759207 409.39682 522.801843 386.559932 L 520.940067 306.964573 " stroke="#000000" stroke-width="4" stroke-opacity="1" stroke-miterlimit="4"/></g><g clip-path="url(#8bb56066ca)"><path stroke-linecap="butt" transform="matrix(0.549711, 0.000000000000000068, -0.000000000000000068, 0.550097, 376.875939, 403.565537)" fill="none" stroke-linejoin="miter" d="M 518.218465 410.490377 C 520.961385 450.114082 536.985444 410.973246 536.637249 388.14346 L 533.396907 315.450294 " stroke="#000000" stroke-width="4" stroke-opacity="1" stroke-miterlimit="4"/></g><g clip-path="url(#20345daeb3)"><path stroke-linecap="butt" transform="matrix(0.549711, 0.000000000000000068, -0.000000000000000068, 0.550097, 376.875939, 403.565537)" fill="none" stroke-linejoin="miter" d="M 532.757366 411.470318 C 536.480917 450.973305 551.531451 410.603993 550.614776 387.79551 L 545.413174 313.951979 " stroke="#000000" stroke-width="4" stroke-opacity="1" stroke-miterlimit="4"/></g><g clip-path="url(#faf45ac37d)"><path stroke-linecap="butt" transform="matrix(0.549711, 0.000000000000000068, -0.000000000000000068, 0.550097, 376.875939, 403.565537)" fill="none" stroke-linejoin="miter" d="M 547.843431 411.271489 C 553.016608 450.525941 566.581986 410.007507 564.826801 387.277135 L 557.230473 315.762739 " stroke="#000000" stroke-width="4" stroke-opacity="1" stroke-miterlimit="4"/></g><g clip-path="url(#9a0406dc0b)"><path stroke-linecap="butt" transform="matrix(0.549711, 0.000000000000000068, -0.000000000000000068, 0.550097, 376.875939, 403.565537)" fill="none" stroke-linejoin="miter" d="M 562.751845 410.248942 C 570.994819 448.708079 581.838595 406.76234 578.292694 384.344413 L 565.473448 312.212228 " stroke="#000000" stroke-width="4" stroke-opacity="1" stroke-miterlimit="4"/></g><g clip-path="url(#90266264d9)"><path stroke-linecap="butt" transform="matrix(0.549711, 0.000000000000000068, -0.000000000000000068, 0.550097, 376.875939, 403.565537)" fill="none" stroke-linejoin="miter" d="M 577.809485 407.373028 C 589.484664 444.454567 595.936923 401.365563 590.387128 379.572526 L 573.183471 315.521304 " stroke="#000000" stroke-width="4" stroke-opacity="1" stroke-miterlimit="4"/></g><g clip-path="url(#9697901a29)"><path stroke-linecap="butt" transform="matrix(0.549711, 0.000000000000000068, -0.000000000000000068, 0.550097, 376.875939, 403.565537)" fill="none" stroke-linejoin="miter" d="M 592.028616 402.579838 C 607.59789 437.438757 610.411871 393.028963 602.559727 372.329483 L 577.880546 312.290339 " stroke="#000000" stroke-width="4" stroke-opacity="1" stroke-miterlimit="4"/></g><g clip-path="url(#068a311bcc)"><path stroke-linecap="butt" transform="matrix(0.549711, 0.000000000000000068, -0.000000000000000068, 0.550097, 376.875939, 403.565537)" fill="none" stroke-linejoin="miter" d="M 605.906659 386.971791 C 625.178165 418.91929 621.561204 374.616012 611.499091 355.414848 L 579.692579 289.836907 " stroke="#000000" stroke-width="4" stroke-opacity="1" stroke-miterlimit="4"/></g><g clip-path="url(#991174b105)"><path fill="#010101" d="M 785.296875 592.347656 C 785.429688 592.25 798.734375 582.820312 801.945312 580.65625 C 805.175781 578.472656 807.046875 576.886719 807.0625 576.871094 L 807.222656 576.738281 L 807.136719 576.554688 C 806.914062 576.078125 801.929688 569.914062 800.957031 569.914062 C 800.949219 569.914062 800.941406 569.914062 800.933594 569.914062 C 800.359375 570.003906 795.929688 573.703125 794.058594 575.285156 C 779.085938 587.460938 775.847656 590.121094 775.132812 590.71875 C 775.035156 590.199219 774.980469 589.003906 774.980469 587.964844 L 775.085938 571.746094 L 781.871094 570.433594 C 781.90625 570.425781 785.570312 569.492188 789.679688 567.292969 C 794.09375 564.933594 794.816406 561.234375 794.941406 557.941406 C 795.089844 553.9375 793.246094 549.976562 790.113281 547.597656 C 786.972656 545.203125 784.210938 545.203125 782.199219 545.195312 C 781.996094 545.195312 781.8125 545.195312 781.625 545.195312 C 780.9375 545.183594 779.136719 545.167969 777.019531 545.148438 C 773.074219 545.105469 767.683594 545.0625 767.046875 545.027344 C 765.964844 544.984375 765.460938 545.554688 765.460938 545.5625 C 765.328125 545.695312 765.257812 545.863281 765.265625 546.046875 C 765.273438 546.507812 765.714844 546.945312 765.777344 546.988281 C 766.703125 547.84375 767.023438 552.871094 767.058594 554.738281 L 767.632812 568.984375 L 767.808594 581.464844 C 767.808594 581.527344 767.691406 587.410156 767.640625 588.378906 L 767.621094 588.746094 C 767.59375 589.222656 767.578125 589.453125 767.535156 589.558594 C 767.339844 589.453125 766.933594 589.074219 766.5625 588.660156 L 748.976562 572.8125 C 748.570312 572.441406 745.015625 569.167969 743.886719 568.78125 C 742.632812 568.347656 741.078125 570.574219 740.929688 570.8125 C 740.566406 571.246094 738.757812 573.4375 738.75 574.28125 C 738.75 574.695312 739.527344 575.480469 740.003906 575.921875 L 760.421875 593.546875 C 762.707031 595.316406 765.097656 597.542969 765.035156 598.007812 C 764.710938 598.828125 755.929688 605.519531 750.476562 609.558594 L 735.246094 621.144531 L 735.203125 621.191406 C 735.007812 621.425781 735.167969 621.875 735.679688 622.570312 C 736.78125 624.070312 739.484375 627.574219 740.796875 627.738281 L 740.914062 627.757812 L 752.214844 618.503906 L 766.035156 606.902344 L 766.730469 606.433594 L 766.582031 606.214844 L 766.792969 606.453125 C 766.90625 606.75 767.046875 607.199219 767.046875 607.613281 C 767.039062 608.371094 767.074219 613.679688 767.074219 613.742188 L 767.632812 639.5625 L 767.683594 639.765625 C 767.78125 640.199219 768.398438 640.207031 769.421875 640.214844 C 769.660156 640.214844 769.90625 640.222656 770.164062 640.234375 C 770.234375 640.234375 770.3125 640.234375 770.402344 640.234375 C 771.488281 640.234375 773.835938 640.058594 774.566406 640.003906 C 774.882812 639.976562 775.121094 639.722656 775.132812 639.40625 L 775.492188 623.902344 C 775.492188 623.75 775.5625 608.933594 775.730469 607.5 C 775.757812 607.253906 775.828125 607.148438 775.871094 607.140625 C 776.046875 607.085938 776.550781 607.464844 776.894531 607.859375 L 785.808594 615.722656 C 785.921875 615.8125 796.253906 625.757812 797.992188 627.519531 C 799 628.542969 799.679688 629.042969 800.066406 629.289062 C 800.421875 629.507812 800.871094 629.472656 801.179688 629.21875 C 803.367188 627.414062 806.984375 624.175781 806.570312 622.714844 C 806.09375 621.015625 800.429688 617.449219 799.800781 617.0625 L 790.960938 610.34375 C 786.292969 606.523438 777.398438 599.257812 777.203125 599.082031 C 777.117188 599.003906 777.0625 598.949219 777.035156 598.90625 L 778.667969 597.417969 Z M 777.109375 566.746094 C 776.515625 566.683594 776.046875 566.578125 775.765625 566.457031 C 774.902344 566.078125 774.894531 565.539062 774.875 564.792969 C 774.867188 564.546875 774.867188 564.289062 774.820312 564.027344 C 774.679688 563.066406 774.847656 557.238281 775.035156 553.65625 C 775.183594 550.757812 775.90625 550.238281 776.003906 550.175781 C 776.339844 550.117188 779.648438 549.542969 782.835938 550.925781 C 786.355469 552.449219 787.351562 556.824219 787.457031 557.316406 C 787.695312 558.460938 787.890625 561.417969 784.625 564.246094 C 783.363281 565.335938 782.03125 565.988281 780.777344 566.359375 C 779.5625 566.675781 778.210938 566.808594 777.109375 566.746094 Z M 805.953125 623.453125 C 805.757812 623.882812 805.34375 624.464844 804.742188 625.144531 C 805.238281 624.527344 805.660156 623.929688 805.953125 623.453125 Z M 805.953125 623.453125 " fill-opacity="1" fill-rule="nonzero"/></g><g clip-path="url(#7244a1953a)"><path fill="#010101" d="M 808.644531 604.726562 L 808.644531 604.601562 C 810.65625 602.929688 812.632812 599.964844 812.632812 595.835938 C 812.632812 590.507812 809.121094 586.28125 803.507812 586.28125 C 798.132812 586.28125 794.085938 590.324219 794.085938 596.070312 C 794.085938 599.964844 796.035156 602.957031 798.046875 604.601562 L 798.046875 604.726562 L 793.695312 604.726562 L 793.695312 606.796875 L 801.320312 606.796875 L 801.320312 605.148438 C 798.921875 603.652344 796.820312 600.058594 796.820312 596.285156 C 796.820312 592.332031 799.195312 588.414062 803.457031 588.414062 C 807.742188 588.414062 809.933594 592.578125 809.933594 596.257812 C 809.933594 600.296875 807.859375 603.503906 805.457031 605.148438 L 805.457031 606.796875 L 813.046875 606.796875 L 813.046875 604.726562 Z M 808.644531 604.726562 " fill-opacity="1" fill-rule="nonzero"/></g><g clip-path="url(#3a7c14e42f)"><path fill="#010101" d="M 745.855469 600.5 C 745.855469 595.613281 746.152344 589.328125 746.347656 587.390625 L 743.578125 587.390625 C 743.425781 588.296875 743.3125 589.214844 743.234375 590.648438 L 743.082031 590.648438 C 742.09375 588.34375 740.082031 586.976562 737.425781 586.976562 C 733.175781 586.976562 729.222656 590.957031 729.222656 596.945312 C 729.222656 602.507812 732.371094 606.152344 736.738281 606.152344 C 739.660156 606.152344 741.785156 604.488281 743.003906 602.289062 L 743.117188 602.289062 C 743.3125 605.085938 744.636719 606.152344 746.269531 606.152344 C 746.648438 606.152344 747.175781 606.117188 747.40625 606.003906 L 747.671875 603.617188 C 746.382812 603.5625 745.855469 602.65625 745.855469 600.5 Z M 742.472656 598.835938 C 741.902344 601.257812 739.890625 603.492188 737.578125 603.492188 C 734.390625 603.492188 732.601562 600.316406 732.601562 596.828125 C 732.601562 592.664062 734.726562 589.59375 737.839844 589.59375 C 740.269531 589.59375 742.09375 591.828125 742.554688 594.292969 C 742.703125 594.9375 742.703125 595.542969 742.703125 596.265625 C 742.703125 597.277344 742.660156 598 742.472656 598.835938 Z M 742.472656 598.835938 " fill-opacity="1" fill-rule="nonzero"/></g><g clip-path="url(#1a41209e1f)"><path fill="#100f0d" d="M 799.292969 587.589844 C 799.175781 588.300781 798.886719 588.953125 798.292969 589.429688 C 796.175781 591.148438 793.042969 590.449219 791.664062 586.453125 C 791.65625 586.4375 791.652344 586.425781 791.636719 586.425781 C 790.984375 586.425781 774.289062 586.425781 773.410156 586.425781 C 773.386719 586.425781 773.371094 586.445312 773.371094 586.464844 L 773.371094 850.445312 C 773.371094 858.324219 772.957031 866.195312 772.128906 874.035156 L 769.164062 902.113281 C 768.933594 904.289062 765.761719 904.289062 765.53125 902.113281 L 762.566406 874.035156 C 761.738281 866.195312 761.324219 858.324219 761.324219 850.445312 L 761.324219 586.464844 C 761.324219 586.445312 761.304688 586.425781 761.285156 586.425781 L 743.066406 586.425781 C 743.050781 586.425781 743.035156 586.4375 743.03125 586.453125 C 741.652344 590.449219 738.519531 591.148438 736.402344 589.429688 C 735.808594 588.953125 735.515625 588.300781 735.402344 587.589844 C 735.039062 585.417969 736.652344 583.414062 738.835938 583.050781 C 746.726562 581.757812 762.222656 581.652344 763.074219 581.648438 C 763.097656 581.648438 763.113281 581.632812 763.113281 581.613281 L 763.113281 548.011719 L 761.75 548.011719 C 761.105469 548.011719 760.519531 547.753906 760.09375 547.324219 C 759.644531 546.878906 759.378906 546.238281 759.421875 545.535156 C 759.5 544.285156 760.652344 543.367188 761.90625 543.367188 L 763.074219 543.367188 C 763.09375 543.367188 763.113281 543.351562 763.113281 543.332031 L 762.914062 509.34375 C 762.914062 509.332031 762.90625 509.320312 762.894531 509.316406 C 754.425781 504.628906 761.941406 496.429688 761.945312 496.421875 C 762.34375 494.308594 763.195312 492.328125 764.109375 490.679688 C 765.914062 487.425781 768.78125 487.425781 770.585938 490.679688 C 771.5 492.328125 772.351562 494.308594 772.746094 496.421875 C 772.753906 496.429688 780.269531 504.628906 771.800781 509.316406 C 771.789062 509.320312 771.78125 509.332031 771.78125 509.34375 L 771.582031 543.332031 C 771.582031 543.351562 771.597656 543.367188 771.621094 543.367188 L 772.785156 543.367188 C 774.042969 543.367188 775.195312 544.285156 775.273438 545.535156 C 775.316406 546.238281 775.046875 546.878906 774.601562 547.324219 C 774.171875 547.753906 773.589844 548.011719 772.945312 548.011719 L 771.582031 548.011719 L 771.582031 581.613281 C 771.582031 581.632812 771.597656 581.648438 771.617188 581.648438 C 772.472656 581.652344 787.96875 581.757812 795.859375 583.050781 C 798.042969 583.414062 799.65625 585.417969 799.292969 587.589844 " fill-opacity="1" fill-rule="nonzero"/></g><g clip-path="url(#0e1730008e)"><path fill="#e90808" d="M 760.695312 383.992188 C 760.820312 377.722656 765.574219 372.183594 771.347656 370.160156 C 769.054688 373.492188 767.914062 378.117188 769.9375 381.847656 C 772.449219 386.445312 777.375 389.328125 779.257812 394.351562 C 781.203125 398.558594 780.542969 403.269531 780.019531 407.707031 C 779.695312 409.457031 780.617188 411.144531 782.289062 411.785156 C 783.652344 408.503906 783.464844 404.699219 785.484375 401.660156 C 786.753906 399.480469 789.023438 398.226562 791.226562 397.183594 C 789.652344 399.992188 789.292969 403.375 790.339844 406.433594 C 791.863281 411.535156 795.40625 415.6875 797.390625 420.585938 C 800.683594 429.40625 799.972656 439.652344 795.425781 447.914062 C 792.773438 452.558594 789.210938 456.710938 784.855469 459.839844 C 789.578125 452.375 790.769531 441.800781 785.375 434.355469 C 781.242188 428.164062 773.734375 425.039062 770.199219 418.375 C 768.039062 414.519531 767.90625 409.890625 768.8125 405.652344 C 766.191406 408.410156 763.871094 411.65625 763.214844 415.484375 C 762.199219 420.523438 763.871094 425.59375 766.140625 430.050781 C 763.871094 429.152344 761.539062 428.039062 760.070312 426.007812 C 758.585938 424.179688 757.992188 421.851562 757.585938 419.585938 C 752.464844 426.707031 749.75 436.433594 753.199219 444.839844 C 755.648438 451.109375 761.992188 454.953125 764 461.449219 C 766.273438 469.597656 762.4375 478.726562 755.378906 483.242188 C 757.523438 479.699219 758.472656 475.082031 756.609375 471.21875 C 752.894531 464.304688 744.769531 461.160156 741.257812 454.089844 C 738.605469 449.378906 738.304688 443.816406 739.054688 438.566406 C 735.347656 445.605469 736.496094 454.609375 741.496094 460.71875 C 744.515625 464.320312 747.804688 467.6875 751.160156 470.976562 C 749.570312 470.800781 748.183594 469.820312 746.644531 469.433594 C 739.003906 466.609375 731.457031 460.878906 729.859375 452.445312 C 727.8125 444.917969 730.40625 437.195312 733.871094 430.53125 C 735.523438 427.03125 738.074219 423.554688 737.625 419.472656 C 737.488281 417.390625 736.234375 415.667969 735.113281 414.007812 C 738.550781 415.011719 741.8125 416.988281 743.617188 420.179688 C 743.578125 415.847656 744.425781 411.460938 746.554688 407.660156 C 748.277344 404.234375 750.78125 401.246094 752.238281 397.691406 C 753.238281 395.28125 752.78125 392.597656 752.082031 390.175781 C 756.863281 392.375 757.960938 397.902344 757.988281 402.652344 C 760.621094 400.890625 761.957031 397.679688 762.054688 394.582031 C 762.230469 390.984375 760.539062 387.59375 760.695312 383.992188 Z M 753.972656 457.019531 C 750.101562 452.832031 746.929688 447.957031 745.488281 442.386719 C 745.894531 448.234375 748.894531 453.9375 753.972656 457.019531 Z M 781.972656 389.742188 C 780.59375 387.292969 781.625 384.210938 783.632812 382.457031 C 782.800781 386.234375 787.03125 388.410156 786.894531 392.042969 C 786.925781 394.195312 785.609375 396.105469 783.863281 397.265625 C 784.210938 394.558594 783.238281 392.054688 781.972656 389.742188 Z M 781.972656 389.742188 " fill-opacity="1" fill-rule="nonzero"/></g><g clip-path="url(#28604c9928)"><path fill="#2a2a2a" d="M 790.160156 983.320312 C 803.078125 983.921875 815.453125 985.699219 827.171875 990.699219 C 830.015625 991.910156 832.683594 993.457031 834.882812 995.703125 C 838.46875 999.367188 838.628906 1003.855469 835.175781 1007.640625 C 832.015625 1011.105469 827.882812 1013.082031 823.632812 1014.816406 C 814.339844 1018.609375 804.589844 1020.585938 794.714844 1022.027344 C 776.300781 1024.710938 757.824219 1024.957031 739.34375 1022.949219 C 727.105469 1021.621094 715.054688 1019.359375 703.738281 1014.199219 C 700.714844 1012.820312 697.878906 1011.128906 695.542969 1008.722656 C 691.371094 1004.425781 691.679688 999.6875 696.390625 995.953125 C 701.097656 992.222656 706.625 990.203125 712.304688 988.558594 C 724.179688 985.121094 736.335938 983.625 748.65625 983.242188 C 749.078125 983.230469 749.53125 983.121094 750.128906 983.539062 C 745.484375 984.257812 741.019531 984.929688 736.5625 985.644531 C 726.980469 987.1875 717.539062 989.277344 708.527344 993.003906 C 706.285156 993.9375 704.152344 995.089844 702.285156 996.667969 C 698.8125 999.601562 698.570312 1003.1875 701.589844 1006.59375 C 703.53125 1008.785156 705.996094 1010.234375 708.601562 1011.453125 C 717.382812 1015.558594 726.765625 1017.410156 736.28125 1018.6875 C 752.628906 1020.878906 769.023438 1020.886719 785.414062 1019.328125 C 797.386719 1018.191406 809.230469 1016.308594 820.398438 1011.5 C 823.597656 1010.121094 826.652344 1008.488281 828.953125 1005.757812 C 831.378906 1002.882812 831.449219 1000.191406 829.074219 997.253906 C 826.570312 994.15625 823.101562 992.433594 819.542969 990.921875 C 810.75 987.1875 801.453125 985.4375 792.074219 984.019531 C 791.5 983.933594 790.867188 984.027344 790.160156 983.320312 Z M 790.160156 983.320312 " fill-opacity="1" fill-rule="evenodd"/></g><g clip-path="url(#6ba306d8c8)"><path fill="#4725ec" d="M 765.414062 903.355469 C 766.15625 907.179688 766.34375 911.015625 766.914062 914.8125 C 768.152344 923.121094 771.613281 930.570312 775.710938 937.78125 C 778.371094 942.464844 781.289062 947.046875 782.5 952.378906 C 784.191406 959.8125 782.820312 966.511719 776.640625 971.429688 C 770.996094 975.914062 764.570312 976.242188 758.105469 973.390625 C 751.730469 970.578125 748.8125 965.195312 748.269531 958.484375 C 747.855469 953.378906 749.613281 948.734375 751.933594 944.289062 C 754.351562 939.660156 757.230469 935.28125 759.429688 930.53125 C 762.921875 922.984375 764.507812 914.988281 765.144531 906.761719 C 765.230469 905.625 765.324219 904.488281 765.414062 903.355469 Z M 765.777344 922.4375 C 764.503906 927.679688 762.691406 932.679688 760.683594 937.625 C 759.214844 941.234375 757.660156 944.820312 756.722656 948.621094 C 755.699219 952.75 755.328125 956.886719 757.222656 960.890625 C 758.851562 964.320312 761.40625 966.53125 765.398438 966.558594 C 769.503906 966.585938 772.214844 964.441406 773.882812 960.84375 C 775.296875 957.789062 775.34375 954.550781 774.882812 951.296875 C 774.550781 948.957031 773.941406 946.671875 773.160156 944.433594 C 770.613281 937.140625 767.304688 930.109375 765.777344 922.4375 Z M 765.777344 922.4375 " fill-opacity="1" fill-rule="evenodd"/></g><path fill="#6c6ad3" d="M 790.585938 987.050781 C 798.800781 987.398438 806.753906 988.910156 814.28125 992.316406 C 816.195312 993.183594 817.960938 994.3125 819.515625 995.742188 C 823.015625 998.957031 823.023438 1002.507812 819.425781 1005.632812 C 816.035156 1008.582031 811.914062 1010.164062 807.699219 1011.492188 C 798.878906 1014.273438 789.769531 1015.515625 780.601562 1016.3125 C 766.5 1017.539062 752.425781 1017.285156 738.425781 1015.046875 C 731.296875 1013.910156 724.242188 1012.433594 717.699219 1009.179688 C 715.816406 1008.242188 714.050781 1007.125 712.554688 1005.632812 C 709.339844 1002.421875 709.484375 998.734375 712.917969 995.753906 C 715.375 993.621094 718.296875 992.335938 721.304688 991.246094 C 729.140625 988.40625 737.3125 987.300781 745.558594 986.585938 C 746.089844 986.539062 746.636719 986.652344 747.195312 986.882812 C 743.128906 987.796875 739.058594 988.679688 735.003906 989.636719 C 730.867188 990.613281 726.859375 991.96875 723.046875 993.863281 C 721.410156 994.679688 719.878906 995.652344 718.609375 996.984375 C 716.433594 999.273438 716.480469 1001.753906 718.777344 1003.941406 C 721.238281 1006.28125 724.316406 1007.480469 727.480469 1008.480469 C 735.457031 1011.011719 743.691406 1012.121094 752 1012.667969 C 764.957031 1013.523438 777.882812 1013.097656 790.722656 1011.09375 C 796.976562 1010.113281 803.171875 1008.796875 809.007812 1006.1875 C 810.773438 1005.394531 812.464844 1004.476562 813.808594 1003.042969 C 815.492188 1001.25 815.5625 999.316406 814 997.417969 C 812.050781 995.046875 809.390625 993.691406 806.660156 992.5 C 801.492188 990.25 796.019531 988.96875 790.585938 987.5625 C 790.585938 987.390625 790.585938 987.222656 790.585938 987.050781 Z M 790.585938 987.050781 " fill-opacity="1" fill-rule="evenodd"/><path fill="#0717f0" d="M 760.449219 989.476562 C 755.179688 990.09375 750.160156 991.046875 745.261719 992.582031 C 742.945312 993.308594 740.675781 994.148438 738.667969 995.550781 C 735.226562 997.953125 735.363281 1000.871094 739.078125 1002.761719 C 742.667969 1004.585938 746.621094 1005.183594 750.546875 1005.683594 C 763.648438 1007.351562 776.695312 1007.152344 789.625 1004.167969 C 791.667969 1003.695312 793.664062 1003.078125 795.46875 1001.960938 C 798.253906 1000.238281 798.378906 998.304688 795.792969 996.25 C 793.960938 994.792969 791.824219 993.898438 789.617188 993.175781 C 784.207031 991.402344 778.613281 990.476562 773.007812 989.613281 C 772.222656 989.492188 771.4375 989.351562 770.582031 989.207031 C 770.941406 988.613281 771.371094 988.75 771.730469 988.746094 C 780.269531 988.628906 788.652344 989.652344 796.804688 992.253906 C 799.230469 993.027344 801.515625 994.125 803.46875 995.796875 C 806.027344 997.984375 806.070312 1000.644531 803.519531 1002.828125 C 801.078125 1004.917969 798.109375 1005.976562 795.074219 1006.804688 C 785.699219 1009.359375 776.101562 1010.09375 766.441406 1010.109375 C 756.890625 1010.121094 747.394531 1009.542969 738.15625 1006.816406 C 735.769531 1006.113281 733.46875 1005.214844 731.441406 1003.730469 C 727.871094 1001.113281 727.832031 997.90625 731.378906 995.230469 C 734.0625 993.207031 737.160156 992.054688 740.367188 991.21875 C 746.367188 989.65625 752.46875 988.875 758.679688 989.039062 C 759.117188 989.046875 759.558594 989.085938 759.996094 989.132812 C 760.082031 989.144531 760.160156 989.253906 760.449219 989.476562 Z M 760.449219 989.476562 " fill-opacity="1" fill-rule="evenodd"/><path fill="#4725ec" d="M 765.613281 993.703125 C 771.429688 993.886719 777.140625 994.136719 782.664062 995.867188 C 783.71875 996.199219 784.746094 996.59375 785.65625 997.21875 C 787.5 998.484375 787.492188 1000.011719 785.621094 1001.273438 C 783.796875 1002.496094 781.691406 1002.960938 779.570312 1003.300781 C 769.875 1004.859375 760.191406 1005.019531 750.550781 1002.859375 C 748.9375 1002.496094 747.359375 1002 746.035156 1000.949219 C 744.585938 999.800781 744.574219 998.585938 746.007812 997.410156 C 747.136719 996.488281 748.488281 996.011719 749.863281 995.605469 C 755.039062 994.078125 760.367188 993.855469 765.613281 993.703125 Z M 765.480469 1000.699219 C 766.542969 1000.425781 768.164062 1000.664062 768.125 999.128906 C 768.089844 997.789062 766.585938 997.777344 765.519531 997.773438 C 764.402344 997.769531 762.828125 997.742188 762.800781 999.1875 C 762.769531 1000.695312 764.40625 1000.449219 765.480469 1000.699219 Z M 765.480469 1000.699219 " fill-opacity="1" fill-rule="evenodd"/><g clip-path="url(#041a115945)"><path fill="#0717f0" d="M 780.1875 1028.011719 C 791.941406 1026.710938 803.5 1024.796875 814.898438 1022 C 822.488281 1020.136719 829.996094 1017.960938 836.898438 1014.132812 C 839.023438 1012.957031 841.078125 1011.683594 842.875 1010.035156 C 848.167969 1005.179688 848.601562 1000.132812 844.21875 994.453125 C 849.570312 995.691406 853 1003.308594 850.367188 1008.199219 C 848.058594 1012.492188 844.097656 1014.921875 839.941406 1017.015625 C 833.058594 1020.480469 825.675781 1022.472656 818.1875 1024.113281 C 806.691406 1026.628906 795.066406 1028.007812 783.289062 1028.011719 C 782.257812 1028.011719 781.222656 1028.011719 780.1875 1028.011719 Z M 780.1875 1028.011719 " fill-opacity="1" fill-rule="evenodd"/></g><path fill="#0717f0" d="M 790.585938 987.050781 C 790.585938 987.222656 790.585938 987.390625 790.585938 987.5625 C 789.957031 987.449219 789.328125 987.335938 788.230469 987.136719 C 789.316406 986.878906 789.949219 986.917969 790.585938 987.050781 Z M 790.585938 987.050781 " fill-opacity="1" fill-rule="evenodd"/><g clip-path="url(#f81a509193)"><g transform="matrix(1, 0, 0, 1, 831, 453)"><g clip-path="url(#a19eeb6c6e)"><g clip-path="url(#03867915f9)"><path stroke-linecap="butt" transform="matrix(-0.51748, -0.000000000000000064, -0.000000000000000064, 0.516883, 324.881771, -35.609353)" fill="none" stroke-linejoin="miter" d="M 580.968575 290.457714 C 459.768225 296.193714 455.103189 218.829504 487.735794 175.851066 C 520.3684 132.872629 526.709225 118.052739 516.624293 95.622635 C 505.656175 71.250301 236.193737 84.097733 232.510019 92.070698 C 201.500363 92.28986 179.858522 95.365686 126.47481 95.365686 C 23.911957 95.365686 -17.544964 92.161385 -76.325926 88.322271 C -137.2054 84.339567 -117.231799 99.756485 -70.022844 106.195315 C -25.803134 112.226051 104.047914 114.153165 129.267792 114.153165 " stroke="#000000" stroke-width="4" stroke-opacity="1" stroke-miterlimit="4"/></g><g clip-path="url(#c1cfc2d551)"><path stroke-linecap="butt" transform="matrix(-0.51748, -0.000000000000000064, -0.000000000000000064, 0.516883, 324.881771, -35.609353)" fill="none" stroke-linejoin="miter" d="M 234.208454 92.501465 C 227.905372 100.255267 234.208454 113.170715 267.837475 110.586114 C 301.466496 108.001513 402.346011 108.001513 438.073543 110.586114 C 473.808624 113.170715 486.339303 123.44866 475.907135 146.755413 C 463.217936 175.118007 462.213972 175.412742 456.990339 188.086356 C 442.708385 222.751749 465.399482 224.255654 471.702564 208.755606 " stroke="#000000" stroke-width="4" stroke-opacity="1" stroke-miterlimit="4"/></g><path stroke-linecap="butt" transform="matrix(-0.51748, -0.000000000000000064, -0.000000000000000064, 0.516883, 324.881771, -35.609353)" fill="none" stroke-linejoin="miter" d="M 236.827819 105.416912 C 207.40337 108.001513 181.670186 105.416912 148.048714 105.416912 C 99.707468 102.839868 137.533511 123.501561 162.760938 123.501561 C 198.488471 123.501561 437.039385 118.339917 470.668406 118.339917 " stroke="#000000" stroke-width="4" stroke-opacity="1" stroke-miterlimit="4"/><path stroke-linecap="butt" transform="matrix(-0.51748, -0.000000000000000064, -0.000000000000000064, 0.516883, 324.881771, -35.609353)" fill="none" stroke-linejoin="miter" d="M -65.070961 105.930809 C -107.109124 105.930809 -92.396899 118.846257 -54.563307 121.430858 C -16.729715 124.015459 136.265346 129.18466 136.265346 129.18466 " stroke="#000000" stroke-width="4" stroke-opacity="1" stroke-miterlimit="4"/><path stroke-linecap="butt" transform="matrix(-0.51748, -0.000000000000000064, -0.000000000000000064, 0.516883, 324.881771, -35.609353)" fill="none" stroke-linejoin="miter" d="M 164.059298 123.546905 C 105.587828 124.801419 148.328012 144.843412 173.532793 143.92142 C 209.245228 142.614005 444.83709 126.698305 478.443466 125.466463 " stroke="#000000" stroke-width="4" stroke-opacity="1" stroke-miterlimit="4"/><path stroke-linecap="butt" transform="matrix(-0.51748, -0.000000000000000064, -0.000000000000000064, 0.516883, 324.881771, -35.609353)" fill="none" stroke-linejoin="miter" d="M 173.54789 144.027223 C 125.168902 144.956772 163.40257 163.49486 188.577157 161.665991 C 224.2443 159.073832 445.931638 136.673957 479.507818 134.232945 " stroke="#000000" stroke-width="4" stroke-opacity="1" stroke-miterlimit="4"/><path stroke-linecap="butt" transform="matrix(-0.51748, -0.000000000000000064, -0.000000000000000064, 0.516883, 324.881771, -35.609353)" fill="none" stroke-linejoin="miter" d="M 189.837773 161.711334 C 141.526722 165.021437 180.83984 181.632411 205.938941 178.564142 C 241.492855 174.218687 443.765189 146.385104 477.228141 142.289041 " stroke="#000000" stroke-width="4" stroke-opacity="1" stroke-miterlimit="4"/><path stroke-linecap="butt" transform="matrix(-0.51748, -0.000000000000000064, -0.000000000000000064, 0.516883, 324.881771, -35.609353)" fill="none" stroke-linejoin="miter" d="M 209.003673 178.057802 C 160.820948 183.529296 200.579433 199.029345 225.565305 194.835036 C 260.968248 188.902546 441.266602 154.667919 474.58613 149.075508 " stroke="#000000" stroke-width="4" stroke-opacity="1" stroke-miterlimit="4"/><path stroke-linecap="butt" transform="matrix(-0.51748, -0.000000000000000064, -0.000000000000000064, 0.516883, 324.881771, -35.609353)" fill="none" stroke-linejoin="miter" d="M 242.640243 191.721423 C 174.506563 205.846041 218.597946 217.348271 243.425297 211.884333 C 278.594233 204.153203 438.692529 163.532647 471.793147 156.254955 " stroke="#000000" stroke-width="4" stroke-opacity="1" stroke-miterlimit="4"/><path stroke-linecap="butt" transform="matrix(-0.51748, -0.000000000000000064, -0.000000000000000064, 0.516883, 324.881771, -35.609353)" fill="none" stroke-linejoin="miter" d="M -32.506293 122.602241 C -74.536908 122.602241 -58.767878 134.86776 -20.934286 137.452361 C 16.891757 140.036962 165.372755 143.785389 165.372755 143.785389 " stroke="#000000" stroke-width="4" stroke-opacity="1" stroke-miterlimit="4"/><path stroke-linecap="butt" transform="matrix(-0.51748, -0.000000000000000064, -0.000000000000000064, 0.516883, 324.881771, -35.609353)" fill="none" stroke-linejoin="miter" d="M 9.328058 139.00161 C -32.702556 139.00161 -17.990332 151.917057 19.843261 154.501658 C 57.669304 157.086259 170.301992 160.184757 170.301992 160.184757 " stroke="#000000" stroke-width="4" stroke-opacity="1" stroke-miterlimit="4"/><path stroke-linecap="butt" transform="matrix(-0.51748, -0.000000000000000064, -0.000000000000000064, 0.516883, 324.881771, -35.609353)" fill="none" stroke-linejoin="miter" d="M 58.839338 156.572362 C 16.808723 156.572362 29.928193 169.487809 67.761785 172.07241 C 105.587828 174.657011 176.167255 175.684806 176.167255 175.684806 " stroke="#000000" stroke-width="4" stroke-opacity="1" stroke-miterlimit="4"/><path stroke-linecap="butt" transform="matrix(-0.51748, -0.000000000000000064, -0.000000000000000064, 0.516883, 324.881771, -35.609353)" fill="none" stroke-linejoin="miter" d="M 100.56046 173.319367 C 58.537393 174.437849 76.216219 186.310387 114.080006 187.882308 C 151.951341 189.461787 187.2637 187.844522 187.2637 187.844522 " stroke="#000000" stroke-width="4" stroke-opacity="1" stroke-miterlimit="4"/><path stroke-linecap="butt" transform="matrix(-0.51748, -0.000000000000000064, -0.000000000000000064, 0.516883, 324.881771, -35.609353)" fill="none" stroke-linejoin="miter" d="M 147.52786 188.570024 C 105.610474 192.34868 121.575767 202.603953 159.4622 201.780206 C 197.348632 200.964017 225.716277 195.69657 225.716277 195.69657 " stroke="#000000" stroke-width="4" stroke-opacity="1" stroke-miterlimit="4"/><path stroke-linecap="butt" transform="matrix(-0.51748, -0.000000000000000064, -0.000000000000000064, 0.516883, 324.881771, -35.609353)" fill="none" stroke-linejoin="miter" d="M 180.047237 200.880886 C 138.265726 206.511084 155.099108 218.035986 192.9327 215.534516 C 205.531316 215.096191 213.291279 213.116175 213.291279 213.116175 " stroke="#000000" stroke-width="4" stroke-opacity="1" stroke-miterlimit="4"/><path stroke-linecap="butt" transform="matrix(-0.51748, -0.000000000000000064, -0.000000000000000064, 0.516883, 324.881771, -35.609353)" fill="none" stroke-linejoin="miter" d="M 250.468143 210.342642 C 202.851563 227.066975 241.236203 233.536034 265.844645 226.734453 C 300.696539 217.083765 433.831229 176.236489 466.629904 167.160157 " stroke="#000000" stroke-width="4" stroke-opacity="1" stroke-miterlimit="4"/><path stroke-linecap="butt" transform="matrix(-0.51748, -0.000000000000000064, -0.000000000000000064, 0.516883, 324.881771, -35.609353)" fill="none" stroke-linejoin="miter" d="M 217.359975 212.337772 C 176.378616 223.81733 190.751154 233.158169 228.101636 225.351465 " stroke="#000000" stroke-width="4" stroke-opacity="1" stroke-miterlimit="4"/><path stroke-linecap="butt" transform="matrix(-0.51748, -0.000000000000000064, -0.000000000000000064, 0.516883, 324.881771, -35.609353)" fill="none" stroke-linejoin="miter" d="M 452.793317 212.632507 C 440.179603 243.632604 465.399482 238.463402 471.702564 228.132556 " stroke="#000000" stroke-width="4" stroke-opacity="1" stroke-miterlimit="4"/><path stroke-linecap="butt" transform="matrix(-0.51748, -0.000000000000000064, -0.000000000000000064, 0.516883, 324.881771, -35.609353)" fill="none" stroke-linejoin="miter" d="M 451.457214 234.170849 C 449.721036 271.435958 471.008093 253.736731 472.940535 241.040446 " stroke="#000000" stroke-width="4" stroke-opacity="1" stroke-miterlimit="4"/><path stroke-linecap="butt" transform="matrix(-0.51748, -0.000000000000000064, -0.000000000000000064, 0.516883, 324.881771, -35.609353)" fill="none" stroke-linejoin="miter" d="M 454.703113 255.490028 C 462.025257 288.961366 478.088681 264.505902 477.213043 251.635798 " stroke="#000000" stroke-width="4" stroke-opacity="1" stroke-miterlimit="4"/><path stroke-linecap="butt" transform="matrix(-0.51748, -0.000000000000000064, -0.000000000000000064, 0.516883, 324.881771, -35.609353)" fill="none" stroke-linejoin="miter" d="M 462.206423 271.647562 C 475.416476 302.277351 486.641247 274.035673 483.463286 261.724811 " stroke="#000000" stroke-width="4" stroke-opacity="1" stroke-miterlimit="4"/><path stroke-linecap="butt" transform="matrix(-0.51748, -0.000000000000000064, -0.000000000000000064, 0.516883, 324.881771, -35.609353)" fill="none" stroke-linejoin="miter" d="M 472.676334 285.469887 C 491.796942 310.945589 496.801665 280.11931 491.170408 269.214108 " stroke="#000000" stroke-width="4" stroke-opacity="1" stroke-miterlimit="4"/><path stroke-linecap="butt" transform="matrix(-0.51748, -0.000000000000000064, -0.000000000000000064, 0.516883, 324.881771, -35.609353)" fill="none" stroke-linejoin="miter" d="M 283.130943 221.671053 C 236.103154 239.785932 275.431369 244.690628 299.662381 236.105521 C 333.993422 223.93069 429.83047 187.693375 462.138486 176.236489 " stroke="#000000" stroke-width="4" stroke-opacity="1" stroke-miterlimit="4"/><path stroke-linecap="butt" transform="matrix(-0.51748, -0.000000000000000064, -0.000000000000000064, 0.516883, 324.881771, -35.609353)" fill="none" stroke-linejoin="miter" d="M 319.326488 228.858058 C 273.038462 246.179419 314.306668 250.207466 338.092312 239.906849 C 371.789271 225.306121 425.56551 201.946467 457.277186 188.207273 " stroke="#000000" stroke-width="4" stroke-opacity="1" stroke-miterlimit="4"/><path stroke-linecap="butt" transform="matrix(-0.51748, -0.000000000000000064, -0.000000000000000064, 0.516883, 324.881771, -35.609353)" fill="none" stroke-linejoin="miter" d="M 369.290684 226.34903 C 324.248177 248.083861 365.652258 248.771577 388.705687 236.196208 C 421.360939 218.383622 422.515875 216.607654 453.253781 199.845534 " stroke="#000000" stroke-width="4" stroke-opacity="1" stroke-miterlimit="4"/><path stroke-linecap="butt" transform="matrix(-0.51748, -0.000000000000000064, -0.000000000000000064, 0.516883, 324.881771, -35.609353)" fill="none" stroke-linejoin="miter" d="M 408.369795 225.283449 C 366.595833 255.293538 408.037657 246.829347 429.23413 230.036999 C 437.401718 222.789536 447.448907 217.522089 452.166783 211.672729 " stroke="#000000" stroke-width="4" stroke-opacity="1" stroke-miterlimit="4"/><path stroke-linecap="butt" transform="matrix(-0.51748, -0.000000000000000064, -0.000000000000000064, 0.516883, 324.881771, -35.609353)" fill="none" stroke-linejoin="miter" d="M 440.617422 221.036239 C 404.852147 261.089997 442.912197 235.470706 449.026564 228.087212 " stroke="#000000" stroke-width="4" stroke-opacity="1" stroke-miterlimit="4"/><path stroke-linecap="butt" transform="matrix(-0.51748, -0.000000000000000064, -0.000000000000000064, 0.516883, 324.881771, -35.609353)" fill="none" stroke-linejoin="miter" d="M 231.883485 227.580872 C 224.531147 230.785173 224.395272 243.496573 261.745754 235.689869 " stroke="#000000" stroke-width="4" stroke-opacity="1" stroke-miterlimit="4"/><path stroke-linecap="butt" transform="matrix(-0.51748, -0.000000000000000064, -0.000000000000000064, 0.516883, 324.881771, -35.609353)" fill="none" stroke-linejoin="miter" d="M 287.531778 239.408066 C 255.570998 245.61262 294.257582 253.230391 312.759205 251.167245 L 452.355498 242.891988 " stroke="#000000" stroke-width="4" stroke-opacity="1" stroke-miterlimit="4"/><path stroke-linecap="butt" transform="matrix(-0.51748, -0.000000000000000064, -0.000000000000000064, 0.516883, 324.881771, -35.609353)" fill="none" stroke-linejoin="miter" d="M 338.137604 239.627228 L 350.283304 238.214011 " stroke="#000000" stroke-width="4" stroke-opacity="1" stroke-miterlimit="4"/><path stroke-linecap="butt" transform="matrix(-0.51748, -0.000000000000000064, -0.000000000000000064, 0.516883, 324.881771, -35.609353)" fill="none" stroke-linejoin="miter" d="M 382.062918 239.521426 L 392.864967 238.100651 " stroke="#000000" stroke-width="4" stroke-opacity="1" stroke-miterlimit="4"/><path stroke-linecap="butt" transform="matrix(-0.51748, -0.000000000000000064, -0.000000000000000064, 0.516883, 324.881771, -35.609353)" fill="none" stroke-linejoin="miter" d="M 419.058615 236.800794 L 428.275458 236.037505 " stroke="#000000" stroke-width="4" stroke-opacity="1" stroke-miterlimit="4"/><path stroke-linecap="butt" transform="matrix(-0.51748, -0.000000000000000064, -0.000000000000000064, 0.516883, 324.881771, -35.609353)" fill="none" stroke-linejoin="miter" d="M 438.813306 236.150865 L 451.827096 236.800794 " stroke="#000000" stroke-width="4" stroke-opacity="1" stroke-miterlimit="4"/><path stroke-linecap="butt" transform="matrix(-0.51748, -0.000000000000000064, -0.000000000000000064, 0.516883, 324.881771, -35.609353)" fill="none" stroke-linejoin="miter" d="M 310.902249 251.069 C 279.288704 259.548305 318.299878 264.384985 336.673175 260.999309 L 452.106394 246.897363 " stroke="#000000" stroke-width="4" stroke-opacity="1" stroke-miterlimit="4"/><path stroke-linecap="butt" transform="matrix(-0.51748, -0.000000000000000064, -0.000000000000000064, 0.516883, 324.881771, -35.609353)" fill="none" stroke-linejoin="miter" d="M 330.143635 261.996874 C 299.186819 273.574677 336.129676 277.368448 354.216126 272.176574 L 452.861254 250.608004 " stroke="#000000" stroke-width="4" stroke-opacity="1" stroke-miterlimit="4"/><path stroke-linecap="butt" transform="matrix(-0.51748, -0.000000000000000064, -0.000000000000000064, 0.516883, 324.881771, -35.609353)" fill="none" stroke-linejoin="miter" d="M 347.082697 274.239721 C 317.046811 289.029382 354.578459 290.646647 372.242187 283.565445 L 455.322098 254.50002 " stroke="#000000" stroke-width="4" stroke-opacity="1" stroke-miterlimit="4"/><path stroke-linecap="butt" transform="matrix(-0.51748, -0.000000000000000064, -0.000000000000000064, 0.516883, 324.881771, -35.609353)" fill="none" stroke-linejoin="miter" d="M 357.80926 286.852876 C 328.792435 304.431185 366.580736 303.002853 383.746256 294.274157 L 456.190187 260.251135 " stroke="#000000" stroke-width="4" stroke-opacity="1" stroke-miterlimit="4"/><path stroke-linecap="butt" transform="matrix(-0.51748, -0.000000000000000064, -0.000000000000000064, 0.516883, 324.881771, -35.609353)" fill="none" stroke-linejoin="miter" d="M 363.123476 299.881683 C 335.148358 319.863218 373.646227 314.520197 390.290894 304.370726 L 458.092435 265.639499 " stroke="#000000" stroke-width="4" stroke-opacity="1" stroke-miterlimit="4"/><path stroke-linecap="butt" transform="matrix(-0.51748, -0.000000000000000064, -0.000000000000000064, 0.516883, 324.881771, -35.609353)" fill="none" stroke-linejoin="miter" d="M 373.759456 311.376355 C 347.248766 334.176768 383.285791 326.967091 399.175598 315.139897 L 462.395138 271.647562 " stroke="#000000" stroke-width="4" stroke-opacity="1" stroke-miterlimit="4"/><path stroke-linecap="butt" transform="matrix(-0.51748, -0.000000000000000064, -0.000000000000000064, 0.516883, 324.881771, -35.609353)" fill="none" stroke-linejoin="miter" d="M 379.956858 324.178443 C 355.159701 349.72216 391.785517 339.293069 406.784589 325.81838 L 464.750302 277.164401 " stroke="#000000" stroke-width="4" stroke-opacity="1" stroke-miterlimit="4"/><path stroke-linecap="butt" transform="matrix(-0.51748, -0.000000000000000064, -0.000000000000000064, 0.516883, 324.881771, -35.609353)" fill="none" stroke-linejoin="miter" d="M 390.789102 335.438839 C 368.301817 364.03571 403.244294 352.359662 417.012944 337.025875 L 468.954873 282.975974 " stroke="#000000" stroke-width="4" stroke-opacity="1" stroke-miterlimit="4"/><path stroke-linecap="butt" transform="matrix(-0.51748, -0.000000000000000064, -0.000000000000000064, 0.516883, 324.881771, -35.609353)" fill="none" stroke-linejoin="miter" d="M 400.08143 348.649022 C 379.858726 379.694462 414.665329 362.048137 427.203557 345.202887 L 475.401379 285.522789 " stroke="#000000" stroke-width="4" stroke-opacity="1" stroke-miterlimit="4"/><path stroke-linecap="butt" transform="matrix(-0.51748, -0.000000000000000064, -0.000000000000000064, 0.516883, 324.881771, -35.609353)" fill="none" stroke-linejoin="miter" d="M 410.61173 360.151252 C 393.189557 393.660376 427.248848 371.8273 438.262258 353.432801 L 477.650862 290.457714 " stroke="#000000" stroke-width="4" stroke-opacity="1" stroke-miterlimit="4"/><path stroke-linecap="butt" transform="matrix(-0.51748, -0.000000000000000064, -0.000000000000000064, 0.516883, 324.881771, -35.609353)" fill="none" stroke-linejoin="miter" d="M 424.101081 369.446746 C 410.000293 405.245737 440.972206 381.258826 450.151306 361.398208 L 481.191157 293.571327 " stroke="#000000" stroke-width="4" stroke-opacity="1" stroke-miterlimit="4"/><path stroke-linecap="butt" transform="matrix(-0.51748, -0.000000000000000064, -0.000000000000000064, 0.516883, 324.881771, -35.609353)" fill="none" stroke-linejoin="miter" d="M 437.65837 379.346826 C 426.811029 416.815982 454.582335 389.345151 461.949771 368.381165 L 485.780707 294.334615 " stroke="#000000" stroke-width="4" stroke-opacity="1" stroke-miterlimit="4"/><path stroke-linecap="butt" transform="matrix(-0.51748, -0.000000000000000064, -0.000000000000000064, 0.516883, 324.881771, -35.609353)" fill="none" stroke-linejoin="miter" d="M 487.192295 294.387516 C 504.720148 317.913431 510.253274 288.394567 504.622017 277.481808 " stroke="#000000" stroke-width="4" stroke-opacity="1" stroke-miterlimit="4"/><path stroke-linecap="butt" transform="matrix(-0.51748, -0.000000000000000064, -0.000000000000000064, 0.516883, 324.881771, -35.609353)" fill="none" stroke-linejoin="miter" d="M 502.953776 299.942141 C 522.066835 325.417842 527.071558 294.591564 521.440301 283.686362 " stroke="#000000" stroke-width="4" stroke-opacity="1" stroke-miterlimit="4"/><path stroke-linecap="butt" transform="matrix(-0.51748, -0.000000000000000064, -0.000000000000000064, 0.516883, 324.881771, -35.609353)" fill="none" stroke-linejoin="miter" d="M 521.44785 306.139138 C 540.568458 331.614839 545.573181 300.796118 539.941924 289.883358 " stroke="#000000" stroke-width="4" stroke-opacity="1" stroke-miterlimit="4"/><path stroke-linecap="butt" transform="matrix(-0.51748, -0.000000000000000064, -0.000000000000000064, 0.516883, 324.881771, -35.609353)" fill="none" stroke-linejoin="miter" d="M 541.006277 308.85977 C 560.126886 334.335471 564.067256 302.859264 558.443547 291.954062 " stroke="#000000" stroke-width="4" stroke-opacity="1" stroke-miterlimit="4"/><path stroke-linecap="butt" transform="matrix(-0.51748, -0.000000000000000064, -0.000000000000000064, 0.516883, 324.881771, -35.609353)" fill="none" stroke-linejoin="miter" d="M 560.141983 306.139138 C 579.262591 331.614839 584.259766 300.796118 578.628509 289.883358 " stroke="#000000" stroke-width="4" stroke-opacity="1" stroke-miterlimit="4"/><path stroke-linecap="butt" transform="matrix(-0.51748, -0.000000000000000064, -0.000000000000000064, 0.516883, 324.881771, -35.609353)" fill="none" stroke-linejoin="miter" d="M 450.792937 387.077957 C 443.32737 425.778955 467.437604 395.398558 472.902792 373.573039 L 490.030569 298.083042 " stroke="#000000" stroke-width="4" stroke-opacity="1" stroke-miterlimit="4"/><g clip-path="url(#30a0cfc8b3)"><path stroke-linecap="butt" transform="matrix(-0.51748, -0.000000000000000064, -0.000000000000000064, 0.516883, 324.881771, -35.609353)" fill="none" stroke-linejoin="miter" d="M 462.070548 396.23742 C 458.839747 435.807509 480.972247 399.660882 484.044528 377.140091 L 494.257786 300.728102 " stroke="#000000" stroke-width="4" stroke-opacity="1" stroke-miterlimit="4"/></g><g clip-path="url(#c964ff14e9)"><path stroke-linecap="butt" transform="matrix(-0.51748, -0.000000000000000064, -0.000000000000000064, 0.516883, 324.881771, -35.609353)" fill="none" stroke-linejoin="miter" d="M 474.872977 403.016329 C 473.944499 442.775352 494.001134 404.81497 495.759958 382.082573 L 499.873946 302.61743 " stroke="#000000" stroke-width="4" stroke-opacity="1" stroke-miterlimit="4"/></g><g clip-path="url(#2afc26ec61)"><path stroke-linecap="butt" transform="matrix(-0.51748, -0.000000000000000064, -0.000000000000000064, 0.516883, 324.881771, -35.609353)" fill="none" stroke-linejoin="miter" d="M 489.321001 406.167729 C 490.249479 445.926751 508.033985 407.951255 508.728456 385.12817 L 508.592581 306.154252 " stroke="#000000" stroke-width="4" stroke-opacity="1" stroke-miterlimit="4"/></g><g clip-path="url(#370b890cde)"><path stroke-linecap="butt" transform="matrix(-0.51748, -0.000000000000000064, -0.000000000000000064, 0.516883, 324.881771, -35.609353)" fill="none" stroke-linejoin="miter" d="M 504.003031 408.419808 C 506.056251 448.110814 522.753758 409.394701 522.79905 386.56406 L 520.934545 306.970442 " stroke="#000000" stroke-width="4" stroke-opacity="1" stroke-miterlimit="4"/></g><g clip-path="url(#3d4c0336d8)"><path stroke-linecap="butt" transform="matrix(-0.51748, -0.000000000000000064, -0.000000000000000064, 0.516883, 324.881771, -35.609353)" fill="none" stroke-linejoin="miter" d="M 518.217048 410.490512 C 520.964739 450.113502 536.990421 410.97418 536.635637 388.143538 L 533.397287 315.449747 " stroke="#000000" stroke-width="4" stroke-opacity="1" stroke-miterlimit="4"/></g><g clip-path="url(#55239798ad)"><path stroke-linecap="butt" transform="matrix(-0.51748, -0.000000000000000064, -0.000000000000000064, 0.516883, 324.881771, -35.609353)" fill="none" stroke-linejoin="miter" d="M 532.763204 411.472962 C 536.484665 450.975036 551.529028 410.603871 550.615647 387.795902 L 545.414661 313.953399 " stroke="#000000" stroke-width="4" stroke-opacity="1" stroke-miterlimit="4"/></g><g clip-path="url(#ff42ad6b6b)"><path stroke-linecap="butt" transform="matrix(-0.51748, -0.000000000000000064, -0.000000000000000064, 0.516883, 324.881771, -35.609353)" fill="none" stroke-linejoin="miter" d="M 547.837762 411.268915 C 553.016103 450.529154 566.588489 410.006844 564.829665 387.274447 L 557.235771 315.759597 " stroke="#000000" stroke-width="4" stroke-opacity="1" stroke-miterlimit="4"/></g><g clip-path="url(#5170aaaebf)"><path stroke-linecap="butt" transform="matrix(-0.51748, -0.000000000000000064, -0.000000000000000064, 0.516883, 324.881771, -35.609353)" fill="none" stroke-linejoin="miter" d="M 562.74625 410.248678 C 570.996872 448.707842 581.836664 406.764756 578.29637 384.34221 L 565.478844 312.215217 " stroke="#000000" stroke-width="4" stroke-opacity="1" stroke-miterlimit="4"/></g><g clip-path="url(#866a1277b4)"><path stroke-linecap="butt" transform="matrix(-0.51748, -0.000000000000000064, -0.000000000000000064, 0.516883, 324.881771, -35.609353)" fill="none" stroke-linejoin="miter" d="M 577.81326 407.369341 C 589.490947 444.460632 595.937453 401.361278 590.38923 379.573545 L 573.178418 315.52532 " stroke="#000000" stroke-width="4" stroke-opacity="1" stroke-miterlimit="4"/></g><g clip-path="url(#53101ce3ee)"><path stroke-linecap="butt" transform="matrix(-0.51748, -0.000000000000000064, -0.000000000000000064, 0.516883, 324.881771, -35.609353)" fill="none" stroke-linejoin="miter" d="M 592.027277 402.578005 C 607.600042 437.439889 610.408122 393.025562 602.565125 372.326082 L 577.881197 312.283233 " stroke="#000000" stroke-width="4" stroke-opacity="1" stroke-miterlimit="4"/></g><g clip-path="url(#5277f027e9)"><path stroke-linecap="butt" transform="matrix(-0.51748, -0.000000000000000064, -0.000000000000000064, 0.516883, 324.881771, -35.609353)" fill="none" stroke-linejoin="miter" d="M 605.909156 386.972154 C 625.180736 418.916915 621.557407 374.615948 611.502669 355.412817 L 579.692861 289.838014 " stroke="#000000" stroke-width="4" stroke-opacity="1" stroke-miterlimit="4"/></g></g></g></g><g clip-path="url(#125e363026)"><path fill="#1a1a1a" d="M 1207.101562 302.753906 L 327.429688 302.753906 L 203.148438 541.246094 L 202.605469 541.246094 L 174.597656 594.894531 L 767.289062 1184.242188 L 1359.496094 595.140625 Z M 257.414062 632.558594 L 252.566406 627.96875 L 213.296875 588.910156 L 221.710938 572.78125 L 222.273438 572.78125 L 346.558594 334.289062 L 1187.976562 334.289062 L 1320.8125 589.136719 L 767.289062 1139.761719 Z M 1259.6875 216.027344 L 274.851562 216.027344 L 68.640625 611.613281 L 767.289062 1306.566406 L 1465.898438 611.613281 Z M 107.335938 605.621094 L 293.972656 247.5625 L 1240.5625 247.5625 L 1427.203125 605.621094 L 767.289062 1262.082031 Z M 107.335938 605.621094 " fill-opacity="1" fill-rule="nonzero"/></g><g transform="matrix(1, 0, 0, 1, 572, 669)"><g clip-path="url(#9386e2d76d)"><g fill="#000000" fill-opacity="1"><g transform="translate(0.921707, 159.706103)"><g><path d="M 33.828125 -64.6875 L 25.109375 -50 L 25.109375 0 L 8.515625 0 L 8.515625 -148.953125 L 25.109375 -148.953125 L 25.109375 -77.03125 L 64.6875 -148.953125 L 81.5 -148.953125 L 43.828125 -81.0625 L 82.765625 0 L 65.75 0 Z M 33.828125 -64.6875 "/></g></g></g><g fill="#000000" fill-opacity="1"><g transform="translate(87.948711, 159.706103)"><g><path d="M 25.328125 -30 L 19.578125 0 L 4.25 0 L 32.765625 -148.953125 L 56.8125 -148.953125 L 85.328125 0 L 68.734375 0 L 62.984375 -30 Z M 27.453125 -44.265625 L 60.640625 -44.265625 L 43.828125 -130.21875 Z M 27.453125 -44.265625 "/></g></g></g><g fill="#000000" fill-opacity="1"><g transform="translate(177.742277, 159.706103)"><g><path d="M 25.109375 -148.953125 L 25.109375 0 L 8.515625 0 L 8.515625 -148.953125 Z M 25.109375 -148.953125 "/></g></g></g><g fill="#000000" fill-opacity="1"><g transform="translate(211.361728, 159.706103)"><g><path d="M 41.703125 -148.953125 C 53.472656 -148.953125 61.945312 -146.039062 67.125 -140.21875 C 72.3125 -134.40625 74.90625 -125.96875 74.90625 -114.90625 L 74.90625 -102.765625 C 74.90625 -94.546875 73.414062 -87.878906 70.4375 -82.765625 C 67.457031 -77.660156 62.773438 -74.117188 56.390625 -72.140625 C 63.191406 -70.148438 68.007812 -66.492188 70.84375 -61.171875 C 73.6875 -55.847656 75.109375 -49.144531 75.109375 -41.0625 L 75.109375 -17.875 C 75.109375 -14.613281 75.25 -11.457031 75.53125 -8.40625 C 75.820312 -5.351562 76.675781 -2.550781 78.09375 0 L 61.28125 0 C 60.289062 -2.125 59.582031 -4.425781 59.15625 -6.90625 C 58.726562 -9.394531 58.515625 -13.125 58.515625 -18.09375 L 58.515625 -41.5 C 58.515625 -49.863281 56.632812 -55.640625 52.875 -58.828125 C 49.113281 -62.023438 43.757812 -63.625 36.8125 -63.625 L 25.109375 -63.625 L 25.109375 0 L 8.515625 0 L 8.515625 -148.953125 Z M 37.453125 -78.734375 C 44.117188 -78.734375 49.296875 -80.113281 52.984375 -82.875 C 56.671875 -85.644531 58.515625 -91.070312 58.515625 -99.15625 L 58.515625 -113.40625 C 58.515625 -120.21875 57.203125 -125.328125 54.578125 -128.734375 C 51.953125 -132.140625 47.519531 -133.84375 41.28125 -133.84375 L 25.109375 -133.84375 L 25.109375 -78.734375 Z M 37.453125 -78.734375 "/></g></g></g><g fill="#000000" fill-opacity="1"><g transform="translate(295.197424, 159.706103)"><g><path d="M 25.109375 -148.953125 L 25.109375 0 L 8.515625 0 L 8.515625 -148.953125 Z M 25.109375 -148.953125 "/></g></g></g><g fill="#000000" fill-opacity="1"><g transform="translate(328.816874, 159.706103)"><g><path d="M 39.796875 -150.4375 C 51.140625 -150.4375 59.503906 -147.066406 64.890625 -140.328125 C 70.285156 -133.585938 72.984375 -124.546875 72.984375 -113.203125 L 72.984375 -109.15625 L 57.234375 -109.15625 L 57.234375 -114.046875 C 57.234375 -120.859375 55.882812 -126.109375 53.1875 -129.796875 C 50.5 -133.484375 46.175781 -135.328125 40.21875 -135.328125 C 34.257812 -135.328125 29.929688 -133.484375 27.234375 -129.796875 C 24.535156 -126.109375 23.1875 -120.929688 23.1875 -114.265625 C 23.1875 -108.734375 24.425781 -103.910156 26.90625 -99.796875 C 29.394531 -95.679688 32.484375 -91.882812 36.171875 -88.40625 C 39.859375 -84.9375 43.863281 -81.535156 48.1875 -78.203125 C 52.519531 -74.867188 56.53125 -71.210938 60.21875 -67.234375 C 63.90625 -63.265625 66.988281 -58.757812 69.46875 -53.71875 C 71.957031 -48.6875 73.203125 -42.695312 73.203125 -35.75 C 73.203125 -24.394531 70.46875 -15.347656 65 -8.609375 C 59.539062 -1.878906 51.066406 1.484375 39.578125 1.484375 C 28.085938 1.484375 19.644531 -1.878906 14.25 -8.609375 C 8.863281 -15.347656 6.171875 -24.394531 6.171875 -35.75 L 6.171875 -44.265625 L 21.703125 -44.265625 L 21.703125 -34.890625 C 21.703125 -28.085938 23.117188 -22.84375 25.953125 -19.15625 C 28.796875 -15.46875 33.195312 -13.625 39.15625 -13.625 C 45.113281 -13.625 49.507812 -15.46875 52.34375 -19.15625 C 55.175781 -22.84375 56.59375 -28.085938 56.59375 -34.890625 C 56.59375 -40.421875 55.351562 -45.207031 52.875 -49.25 C 50.394531 -53.300781 47.3125 -57.0625 43.625 -60.53125 C 39.9375 -64.007812 35.960938 -67.414062 31.703125 -70.75 C 27.453125 -74.082031 23.476562 -77.734375 19.78125 -81.703125 C 16.09375 -85.679688 13.007812 -90.1875 10.53125 -95.21875 C 8.050781 -100.25 6.8125 -106.242188 6.8125 -113.203125 C 6.8125 -124.691406 9.503906 -133.769531 14.890625 -140.4375 C 20.285156 -147.101562 28.585938 -150.4375 39.796875 -150.4375 Z M 39.796875 -150.4375 "/></g></g></g></g></g></svg>